<svg xmlns="http://www.w3.org/2000/svg" width="14" height="19" viewBox="0 0 14 19">
    <defs>
        <filter id="miroffmhia">
            <feColorMatrix in="SourceGraphic" values="0 0 0 0 1.000000 0 0 0 0 1.000000 0 0 0 0 1.000000 0 0 0 1.000000 0"/>
        </filter>
    </defs>
    <g fill="none" fill-rule="evenodd">
        <g filter="url(#miroffmhia)" transform="translate(-421 -455)">
            <g fill="#000" fill-rule="nonzero">
                <path d="M12.143 8.08V5.071c.009-1.361-.547-2.67-1.54-3.625C9.646.512 8.39 0 7.06 0h-.066C4.158.004 1.852 2.276 1.852 5.071v3.01C.782 8.204 0 9.082 0 10.145v6.76C0 18.052.939 19 2.112 19h9.776C13.061 19 14 18.053 14 16.905v-6.759c-.004-1.059-.786-1.941-1.857-2.066zM2.672 5.071h.004C2.676 2.72 4.615.793 6.998.793h.004C8.134.79 9.221 1.23 10.024 2.01c.835.81 1.3 1.913 1.292 3.061v3.013h-.906V5.071c.009-.914-.362-1.792-1.025-2.437-.625-.612-1.473-.958-2.358-.958h-.025c-1.894 0-3.425 1.522-3.425 3.391v3.017h-.905V5.071zm6.92 0v3.013H4.404V5.071c0-1.426 1.16-2.586 2.601-2.586h.025c.667 0 1.309.262 1.782.725.502.492.787 1.164.778 1.861zm3.622 11.847c0 .704-.585 1.276-1.305 1.276h-9.78c-.721 0-1.306-.572-1.306-1.276v-6.751c0-.705.585-1.277 1.305-1.277h9.78c.721 0 1.306.572 1.306 1.277v6.75z" transform="translate(421 455)"/>
                <path d="M8.92 12.2C8.675 11.489 7.893 11 7 11 5.898 11 5 11.74 5 12.66c0 .741.588 1.39 1.447 1.592v1.288c0 .253.25.46.554.46.305 0 .555-.207.555-.46v-1.288C8.615 14 9.23 13.08 8.919 12.201zM7 13.398c-.493 0-.892-.332-.892-.741 0-.41.399-.74.892-.74.494 0 .893.33.893.74s-.4.74-.893.74z" transform="translate(421 455)"/>
            </g>
        </g>
    </g>
</svg>
